<?xml version="1.0" encoding="utf-8"?>
<!-- Generator: Adobe Illustrator 22.0.0, SVG Export Plug-In . SVG Version: 6.00 Build 0)  -->
<svg version="1.1" baseProfile="tiny" id="Layer_1" xmlns="http://www.w3.org/2000/svg" xmlns:xlink="http://www.w3.org/1999/xlink"
	 x="0px" y="0px" viewBox="0 0 320.8 487.9" xml:space="preserve">
<path fill="#F4921E" d="M130,410c-29.9-8.1-48.3-30.7-49-61.6c-0.6-29.1-0.2-58.3-0.3-87.5c0-0.7,0.2-1.3,0.4-2.8c1.7,0,3.5,0,5.2,0
	c34.5,0,69-0.7,103.4,0.1c30.1,0.7,42.7-14.3,47.7-38.7c2.9-14.2,3.2-28.5-1.4-42.4c-6.2-19-23-31.1-43-31.2c-34.8,0-69.6,0-104.5,0
	c-2,0-3.9,0-6.5,0c0-2.3,0-4,0-5.8c0-18.2-0.2-36.3,0-54.5C82.6,52.5,58,36.2,35.1,32.3c0,53.4,0,106.8,0,160.8c1.9,0,3.8,0,5.8,0
	c63.5-0.2,132.7-0.3,196.1-0.6c0,3.1,0,11.5,0,16c-67.1,0.2-215.9,0.5-218.2,0.5c0-3,0-129.6,0.1-192.5c0-0.8,0.1-1.7,0.2-2.5
	c2.7,0,17.5,1.3,29.7,5.2C80.6,29.4,97.9,53,98.1,86.4c0.1,14.3,0,28.6,0,43.7c2.2,0,4.1,0,6,0c29.2,0,58.3,0,87.5,0
	c34.7,0,61.5,25.6,63.4,60.2c0.9,16.8-0.2,33.3-6.9,49c-9.9,22.9-27.4,34.5-52.3,34.6c-31.2,0.2-62.3,0.1-93.5,0.2
	c-1.6,0-3.3,0-5.2,0c-0.2,1.8-0.4,3.3-0.4,4.7c0,21.7,0,43.3,0,65c0,16.2,4.4,30.6,17.6,41.1c8.1,6.5,17.6,9.7,28.3,11.4
	c0-25.5,0-50.4,0-76.2c2.4,0,4.3,0,6.2,0c29.2,0,58.3,0,87.5,0c28.4,0,49.9-19.9,51.5-48.4c0.5-8.1,0.1-16.4-1.4-24.3
	c-3.4-16.9-11.9-30.3-28.7-36.4c0-5.4,0-10.5,0-16.4c8.7,2.1,16,5.8,22.5,11.1c13.3,10.9,19.6,25.7,22.8,42.1
	c1.3,9.9,1.8,15.8,0,31.9c-5.7,33.8-32.3,56.3-66.6,56.4c-24,0-48,0-71.9,0c-1.8,0-3.6,0-5.8,0c0,4.3,0,7.9,0,11.5
	c0.1,21.8,0.2,45.2,0.3,67C151.5,414.7,144.9,413.7,130,410z"/>
<text transform="matrix(1 0 0 1 17.2374 471.3984)" fill="#F07F09" font-family="'MyriadPro-Regular'" font-size="38px">Best</text>
<text transform="matrix(1 0 0 1 143.9268 471.3984)" fill="#4560AC" font-family="'MyriadPro-Regular'" font-size="38px"> </text>
<text transform="matrix(1 0 0 1 164.1426 471.3984)" fill="#787878" font-family="'MyriadPro-Regular'" font-size="38px">Price</text>
</svg>
